<?xml version="1.0" encoding="UTF-8" standalone="no"?>
<!-- Generator: Adobe Illustrator 19.0.0, SVG Export Plug-In . SVG Version: 6.00 Build 0)  -->

<svg
   xmlns:dc="http://purl.org/dc/elements/1.1/"
   xmlns:cc="http://creativecommons.org/ns#"
   xmlns:rdf="http://www.w3.org/1999/02/22-rdf-syntax-ns#"
   xmlns:svg="http://www.w3.org/2000/svg"
   xmlns="http://www.w3.org/2000/svg"
   xmlns:sodipodi="http://sodipodi.sourceforge.net/DTD/sodipodi-0.dtd"
   xmlns:inkscape="http://www.inkscape.org/namespaces/inkscape"
   version="1.1"
   id="Layer_1"
   x="0px"
   y="0px"
   viewBox="0 0 512 512"
   style="enable-background:new 0 0 512 512;"
   xml:space="preserve"
   sodipodi:docname="pencil.svg"
   inkscape:export-filename="/home/mverot/www/SaRoomAn/images/icones/edit.png"
   inkscape:export-xdpi="3.0000029"
   inkscape:export-ydpi="3.0000029"
   inkscape:version="0.92.3 (2405546, 2018-03-11)"><metadata
   id="metadata57"><rdf:RDF><cc:Work
       rdf:about=""><dc:format>image/svg+xml</dc:format><dc:type
         rdf:resource="http://purl.org/dc/dcmitype/StillImage" /></cc:Work></rdf:RDF></metadata><defs
   id="defs55">
	
	















</defs><sodipodi:namedview
   pagecolor="#ffffff"
   bordercolor="#666666"
   borderopacity="1"
   objecttolerance="10"
   gridtolerance="10"
   guidetolerance="10"
   inkscape:pageopacity="0"
   inkscape:pageshadow="2"
   inkscape:window-width="1920"
   inkscape:window-height="1051"
   id="namedview53"
   showgrid="false"
   inkscape:zoom="0.921875"
   inkscape:cx="413.47691"
   inkscape:cy="235.8708"
   inkscape:window-x="0"
   inkscape:window-y="0"
   inkscape:window-maximized="1"
   inkscape:current-layer="Layer_1" />
<path
   style="fill:#F28E00;"
   d="M495.648,16.351c-21.802-21.802-57.15-21.802-78.951,0L44.776,388.272L0,512l123.727-44.776  L495.648,95.303l0,0C517.45,73.501,517.45,38.153,495.648,16.351z"
   id="path2" />
<path
   style="fill:#FF405F;"
   d="M495.648,16.351c-21.802-21.802-57.15-21.802-78.951,0l-43.491,43.491l78.951,78.952l43.491-43.491  l0,0C517.45,73.501,517.45,38.153,495.648,16.351z"
   id="path4" />
<path
   inkscape:connector-curvature="0"
   id="path6"
   d="m 495.648,16.351 c -21.802,-21.802 -57.15,-21.802 -78.951,0 L 44.776,388.272 0,512 Z"
   style="fill:#fbba00" /><polygon
   id="polygon8"
   points="44.776,388.272 0,512 123.727,467.224 "
   style="fill:#fbba00" />
<rect
   x="324.052"
   y="116.442"
   transform="matrix(-0.7071 -0.7071 0.7071 -0.7071 555.0768 494.1515)"
   style="fill:#E0E0E0;"
   width="111.657"
   height="31.347"
   id="rect12" />
<rect
   x="332.225"
   y="96.706"
   transform="matrix(-0.7071 -0.7071 0.7071 -0.7071 535.3307 446.5008)"
   style="fill:#F1F1F1;"
   width="55.828"
   height="31.347"
   id="rect14" />
<polygon
   style="fill:#FBDB80;"
   points="84.251,427.749 44.776,388.272 0,512 "
   id="polygon16" />
<path
   style="fill:#FB788A;"
   d="M495.648,16.351c-21.802-21.802-57.15-21.802-78.951,0l-43.491,43.491l39.476,39.476L495.648,16.351z  "
   id="path18" />
<polygon
   style="fill:#000000"
   points="0,512 68.522,487.202 24.798,443.477 "
   id="polygon20" />















</svg>