<?xml version="1.0" encoding="UTF-8" standalone="no"?>
<!-- Created with Inkscape (http://www.inkscape.org/) -->

<svg
   xmlns:dc="http://purl.org/dc/elements/1.1/"
   xmlns:cc="http://creativecommons.org/ns#"
   xmlns:rdf="http://www.w3.org/1999/02/22-rdf-syntax-ns#"
   xmlns:svg="http://www.w3.org/2000/svg"
   xmlns="http://www.w3.org/2000/svg"
   xmlns:sodipodi="http://sodipodi.sourceforge.net/DTD/sodipodi-0.dtd"
   xmlns:inkscape="http://www.inkscape.org/namespaces/inkscape"
   width="36.731735mm"
   height="36.731735mm"
   viewBox="0 0 36.731735 36.731735"
   version="1.1"
   id="svg1895"
   inkscape:version="0.92.3 (2405546, 2018-03-11)"
   sodipodi:docname="favicon.svg">
  <defs
     id="defs1889" />
  <sodipodi:namedview
     id="base"
     pagecolor="#ffffff"
     bordercolor="#666666"
     borderopacity="1.0"
     inkscape:pageopacity="0.0"
     inkscape:pageshadow="2"
     inkscape:zoom="0.35"
     inkscape:cx="-426.01929"
     inkscape:cy="-445.81373"
     inkscape:document-units="mm"
     inkscape:current-layer="layer1"
     showgrid="false"
     inkscape:window-width="1920"
     inkscape:window-height="1021"
     inkscape:window-x="0"
     inkscape:window-y="0"
     inkscape:window-maximized="1"
     fit-margin-top="0"
     fit-margin-left="0"
     fit-margin-right="0"
     fit-margin-bottom="0" />
  <metadata
     id="metadata1892">
    <rdf:RDF>
      <cc:Work
         rdf:about="">
        <dc:format>image/svg+xml</dc:format>
        <dc:type
           rdf:resource="http://purl.org/dc/dcmitype/StillImage" />
        <dc:title></dc:title>
      </cc:Work>
    </rdf:RDF>
  </metadata>
  <g
     inkscape:label="Calque 1"
     inkscape:groupmode="layer"
     id="layer1"
     transform="translate(74.306349,-63.943652)">
    <rect
       style="opacity:1;fill:none;fill-opacity:1;stroke:none;stroke-width:4;stroke-miterlimit:4;stroke-dasharray:none;stroke-dashoffset:1.30204725;stroke-opacity:1"
       id="rect1841"
       width="138.82861"
       height="138.82861"
       x="-737.54559"
       y="620.12097"
       transform="matrix(0.26458333,0,0,0.26458333,120.83592,-100.13002)"
       inkscape:export-xdpi="11.064002"
       inkscape:export-ydpi="11.064002" />
    <path
       style="fill:#eb5569;stroke-width:4.78069258"
       inkscape:connector-curvature="0"
       d="m 491.938,229.544 c 1.77,22.9 -14.34,43.23 -35.97,45.4 -16.56,1.66 -31.54,-7.81 -38.46,-22.6 l -19.63,1.73 -14.82,7.15 c -3.39,1.63 -5.67,4.87 -6.19,8.59 -1.4,10.03 -3.94,19.69 -7.47,28.87 -1.2,3.11 -0.99,6.58 0.64,9.48 l 5.28,9.44 14.68,9.85 c 7.74,-2.96 16.75,-2.25 24.16,2.72 12.56,8.43 15.57,25.78 6.23,37.99 -8.04,10.52 -22.99,13.41 -34.37,6.65 -7.25,-4.3 -11.63,-11.44 -12.7,-19.07 l -16.27,-10.91 -10.24,-1.25 c -3.52,-0.43 -7.02,0.78 -9.58,3.23 -8.64,8.23 -18.4,15.3 -29.01,20.96 -3.57,1.9 -5.86,5.55 -6.11,9.58 l -1.3,20.74 6.44,25.55 c 10.96,3.06 20.02,11.75 23,23.57 4.5,17.87 -6.6,36 -24.7,40.03 -16.33,3.64 -33.08,-5.88 -38.27,-21.79 -4.04,-12.42 -0.33,-25.26 8.21,-33.65 l -6.47,-25.7 -9.99,-16.06 c -2.68,-4.31 -7.42,-6.86 -12.5,-6.85 -0.03,0 -0.05,0 -0.08,0 -8.75,0 -17.31,-0.87 -25.59,-2.5 -4.93,-0.98 -10.02,0.58 -13.48,4.23 l -13.2,13.93 -14.78,30.66 c 3.46,7.03 3.77,15.52 0.11,23.13 -6.58,13.64 -23.36,19.06 -36.77,11.52 -11.48,-6.47 -16.45,-20.75 -11.45,-32.95 3.41,-8.32 10.48,-13.88 18.48,-15.74 l 14.87,-30.86 2.92,-20.71 c 0.53,-3.82 -0.93,-7.67 -3.93,-10.09 -11.83,-9.6 -21.97,-21.19 -29.9,-34.27 -1.97,-3.25 -5.51,-5.22 -9.31,-5.25 l -20.68,-0.2 -22.64,7.12 c -1.59,14.08 -11.23,26.59 -25.61,31.11 -19.32,6.08 -39.9,-4.54 -46.17,-23.74 -6.27,-19.19 4.32,-40.18 23.49,-46.52 13.42,-4.44 27.52,-0.75 37.06,8.32 l 24.03,-7.56 17.55,-12.51 c 2.61,-1.85 4,-4.95 3.74,-8.13 -0.29,-3.53 -0.44,-7.09 -0.44,-10.69 0,-19.56 4.3,-38.13 11.98,-54.83 1.12,-2.45 1.09,-5.27 -0.09,-7.69 l -5.2,-10.63 -14.11,-10.65 c -7.9,2.53 -16.85,1.32 -23.97,-4.05 -12.08,-9.12 -14.12,-26.61 -4.12,-38.28 8.61,-10.05 23.7,-12.11 34.69,-4.73 7,4.7 10.98,12.06 11.62,19.74 l 15.64,11.8 15.76,2.81 c 11.47,-10.65 24.84,-19.28 39.53,-25.33 l 3.7,-22.48 -4.67,-23.22 c -13.82,-3.56 -25.04,-14.15 -28.06,-28.27 -4.26,-19.95 9.45,-39.38 30.63,-43.39 21.17,-4.01 41.79,8.9 46.05,28.85 3.19,14.93 -3.68,29.56 -16.22,37.66 l 4.41,21.9 10.83,17.28 c 0.71,1.13 1.95,1.81 3.28,1.81 h 0.02 c 24.8,0 48.02,6.9 67.85,18.88 1.09,0.65 2.43,0.74 3.58,0.2 l 16.96,-7.86 19.8,-21.42 c -1.19,-7.68 1,-15.82 6.69,-21.97 10.28,-11.11 27.88,-11.39 38.5,-0.28 9.31,9.75 9.67,25.3 0.83,35.48 -5.72,6.59 -13.93,9.63 -21.95,9.03 l -19.8,21.42 -6.43,17.3 c -0.45,1.2 -0.25,2.54 0.5,3.58 7.81,10.72 14.04,22.66 18.34,35.48 1.19,3.52 3.99,6.26 7.57,7.27 l 16.1,4.51 20.92,-1.85 c 5.13,-14.79 17.94,-25.98 33.67,-27.56 21.63,-2.17 40.6,14.64 42.36,37.54 z"
       id="path825-2-6"
       transform="matrix(0.07186351,0,0,0.07182732,-74.033186,64.180042)"
       inkscape:export-xdpi="11.064002"
       inkscape:export-ydpi="11.064002" />
    <path
       style="opacity:1;fill:#f58a97;fill-opacity:1;stroke:none;stroke-width:42.80010605;stroke-miterlimit:4;stroke-dasharray:none;stroke-dashoffset:1.30204725;stroke-opacity:1"
       d="M 35.104631,109.46068 C 5.9905165,101.39833 -6.3478186,71.109431 8.2811922,43.612866 11.966,36.686932 26.268313,21.238536 35.382236,14.34014 45.145588,6.9501877 49.872866,5.2298637 65.569186,3.3546788 86.91387,0.80470323 91.526812,1.0001974 99.20498,4.7801472 108.62482,9.4175211 109.43336,10.6218 109.85415,20.641535 110.47868,35.512958 105.68988,56.783435 98.516537,71 c -8.317314,16.483749 -21.303226,31.29385 -32.07811,36.58426 -5.201217,2.55377 -7.17985,2.94397 -15.938427,3.14313 -6.462878,0.14696 -11.908408,-0.30109 -15.395369,-1.26671 z"
       id="path1688-0-9"
       inkscape:connector-curvature="0"
       transform="matrix(0.12453186,0,0,0.12446915,-63.461364,75.507212)"
       inkscape:export-xdpi="11.064002"
       inkscape:export-ydpi="11.064002" />
    <text
       xml:space="preserve"
       style="font-style:normal;font-variant:normal;font-weight:bold;font-stretch:normal;font-size:5.33333349px;line-height:1.25;font-family:Purisa;-inkscape-font-specification:'Purisa Bold';text-align:center;text-anchor:middle;opacity:1;fill:#000000;fill-opacity:1;stroke:none;stroke-width:10.29302311;stroke-miterlimit:4;stroke-dasharray:none;stroke-dashoffset:1.30204725;stroke-opacity:1"
       x="294.82144"
       y="352.16254"
       id="text1670-0-1"
       transform="matrix(0.5178243,0,0,0.51756347,-209.19453,-93.072816)"
       inkscape:export-xdpi="11.064002"
       inkscape:export-ydpi="11.064002"><tspan
         sodipodi:role="line"
         id="tspan1668-3-2"
         x="294.82144"
         y="352.16254"
         style="font-size:48.24000168px;stroke-width:10.29302311">o</tspan></text>
    <circle
       style="fill:#eb5569;stroke-width:4.78069258"
       id="circle837-1-7"
       r="27.771"
       cy="46.432999"
       cx="82.364998"
       transform="matrix(0.07186351,0,0,0.07182732,-74.033186,64.180042)"
       inkscape:export-xdpi="11.064002"
       inkscape:export-ydpi="11.064002" />
    <circle
       style="fill:#eb5569;stroke-width:4.78069258"
       id="circle839-1-0"
       r="18.343"
       cy="412.49701"
       cx="74.773003"
       transform="matrix(0.07186351,0,0,0.07182732,-74.033186,64.180042)"
       inkscape:export-xdpi="11.064002"
       inkscape:export-ydpi="11.064002" />
    <circle
       style="fill:#eb5569;stroke-width:4.78069258"
       id="circle841-6-9"
       r="27.018"
       cy="442.629"
       cx="411.56299"
       transform="matrix(0.07186351,0,0,0.07182732,-74.033186,64.180042)"
       inkscape:export-xdpi="11.064002"
       inkscape:export-ydpi="11.064002" />
    <circle
       style="fill:#eb5569;stroke-width:4.78069258"
       id="circle843-2-3"
       r="25.188999"
       cy="224.60001"
       cx="216.51401"
       transform="matrix(0.07186351,0,0,0.07182732,-73.019716,64.964273)"
       inkscape:export-xdpi="11.064002"
       inkscape:export-ydpi="11.064002" />
    <circle
       style="fill:#eb5569;stroke-width:4.78069258"
       id="circle845-6-6"
       r="17.145"
       cy="302.83899"
       cx="236.73399"
       transform="matrix(0.07186351,0,0,0.07182732,-74.033186,63.559197)"
       inkscape:export-xdpi="11.064002"
       inkscape:export-ydpi="11.064002" />
    <circle
       style="fill:#eb5569;stroke-width:4.78069258"
       id="circle847-6-0"
       r="14.397"
       cy="251.494"
       cx="290.57001"
       transform="matrix(0.07186351,0,0,0.07182732,-74.425497,63.755256)"
       inkscape:export-xdpi="11.064002"
       inkscape:export-ydpi="11.064002" />
    <path
       id="path1807-7-6"
       d="m 491.938,229.544 c 1.77,22.9 -14.34,43.23 -35.97,45.4 -16.56,1.66 -31.54,-7.81 -38.46,-22.6 l -19.63,1.73 -14.82,7.15 c -3.39,1.63 -5.67,4.87 -6.19,8.59 -1.4,10.03 -3.94,19.69 -7.47,28.87 -1.2,3.11 -0.99,6.58 0.64,9.48 l 5.28,9.44 14.68,9.85 c 7.74,-2.96 16.75,-2.25 24.16,2.72 12.56,8.43 15.57,25.78 6.23,37.99 -8.04,10.52 -22.99,13.41 -34.37,6.65 -7.25,-4.3 -11.63,-11.44 -12.7,-19.07 l -16.27,-10.91 -10.24,-1.25 c -3.52,-0.43 -7.02,0.78 -9.58,3.23 -8.64,8.23 -18.4,15.3 -29.01,20.96 -3.57,1.9 -5.86,5.55 -6.11,9.58 l -1.3,20.74 6.44,25.55 c 10.96,3.06 20.02,11.75 23,23.57 4.5,17.87 -6.6,36 -24.7,40.03 -16.33,3.64 -33.08,-5.88 -38.27,-21.79 -4.04,-12.42 -0.33,-25.26 8.21,-33.65 l -6.47,-25.7 -9.99,-16.06 c -2.68,-4.31 -7.42,-6.86 -12.5,-6.85 -0.03,0 -0.05,0 -0.08,0 -8.75,0 -17.31,-0.87 -25.59,-2.5 -4.93,-0.98 -10.02,0.58 -13.48,4.23 l -13.2,13.93 -14.78,30.66 c 3.46,7.03 3.77,15.52 0.11,23.13 -6.58,13.64 -23.36,19.06 -36.77,11.52 -11.48,-6.47 -16.45,-20.75 -11.45,-32.95 3.41,-8.32 10.48,-13.88 18.48,-15.74 l 14.87,-30.86 2.92,-20.71 c 0.53,-3.82 -0.93,-7.67 -3.93,-10.09 -11.83,-9.6 -21.97,-21.19 -29.9,-34.27 -1.97,-3.25 -5.51,-5.22 -9.31,-5.25 l -20.68,-0.2 -22.64,7.12 c -1.59,14.08 -11.23,26.59 -25.61,31.11 -19.32,6.08 -39.9,-4.54 -46.17,-23.74 -6.27,-19.19 4.32,-40.18 23.49,-46.52 13.42,-4.44 27.52,-0.75 37.06,8.32 l 24.03,-7.56 17.55,-12.51 c 2.61,-1.85 4,-4.95 3.74,-8.13 -0.29,-3.53 -0.44,-7.09 -0.44,-10.69 0,-19.56 4.3,-38.13 11.98,-54.83 1.12,-2.45 1.09,-5.27 -0.09,-7.69 l -5.2,-10.63 -14.11,-10.65 c -7.9,2.53 -16.85,1.32 -23.97,-4.05 -12.08,-9.12 -14.12,-26.61 -4.12,-38.28 8.61,-10.05 23.7,-12.11 34.69,-4.73 7,4.7 10.98,12.06 11.62,19.74 l 15.64,11.8 15.76,2.81 c 11.47,-10.65 24.84,-19.28 39.53,-25.33 l 3.7,-22.48 -4.67,-23.22 c -13.82,-3.56 -25.04,-14.15 -28.06,-28.27 -4.26,-19.95 9.45,-39.38 30.63,-43.39 21.17,-4.01 41.79,8.9 46.05,28.85 3.19,14.93 -3.68,29.56 -16.22,37.66 l 4.41,21.9 10.83,17.28 c 0.71,1.13 1.95,1.81 3.28,1.81 h 0.02 c 24.8,0 48.02,6.9 67.85,18.88 1.09,0.65 2.43,0.74 3.58,0.2 l 16.96,-7.86 19.8,-21.42 c -1.19,-7.68 1,-15.82 6.69,-21.97 10.28,-11.11 27.88,-11.39 38.5,-0.28 9.31,9.75 9.67,25.3 0.83,35.48 -5.72,6.59 -13.93,9.63 -21.95,9.03 l -19.8,21.42 -6.43,17.3 c -0.45,1.2 -0.25,2.54 0.5,3.58 7.81,10.72 14.04,22.66 18.34,35.48 1.19,3.52 3.99,6.26 7.57,7.27 l 16.1,4.51 20.92,-1.85 c 5.13,-14.79 17.94,-25.98 33.67,-27.56 21.63,-2.17 40.6,14.64 42.36,37.54 z"
       inkscape:connector-curvature="0"
       style="fill:#eb5569;stroke-width:4.78069258"
       transform="matrix(0.07186351,0,0,0.07182732,-74.033186,64.180032)"
       inkscape:export-xdpi="11.064002"
       inkscape:export-ydpi="11.064002" />
    <path
       transform="matrix(0.12453186,0,0,0.12446915,-63.461367,75.507212)"
       inkscape:connector-curvature="0"
       id="path1813-8-8"
       d="M 35.104631,109.46068 C 5.9905165,101.39833 -6.3478186,71.109431 8.2811922,43.612866 11.966,36.686932 26.268313,21.238536 35.382236,14.34014 45.145588,6.9501877 49.872866,5.2298637 65.569186,3.3546788 86.91387,0.80470323 91.526812,1.0001974 99.20498,4.7801472 108.62482,9.4175211 109.43336,10.6218 109.85415,20.641535 110.47868,35.512958 105.68988,56.783435 98.516537,71 c -8.317314,16.483749 -21.303226,31.29385 -32.07811,36.58426 -5.201217,2.55377 -7.17985,2.94397 -15.938427,3.14313 -6.462878,0.14696 -11.908408,-0.30109 -15.395369,-1.26671 z"
       style="opacity:1;fill:#f58a97;fill-opacity:1;stroke:none;stroke-width:3.05215454;stroke-miterlimit:4;stroke-dasharray:none;stroke-dashoffset:1.30204725;stroke-opacity:1"
       inkscape:export-xdpi="11.064002"
       inkscape:export-ydpi="11.064002" />
    <circle
       transform="matrix(0.07186351,0,0,0.07182732,-74.033186,64.180032)"
       cx="82.364998"
       cy="46.432999"
       r="27.771"
       id="circle1821-9-2"
       style="fill:#eb5569;stroke-width:4.78069258"
       inkscape:export-xdpi="11.064002"
       inkscape:export-ydpi="11.064002" />
    <circle
       transform="matrix(0.07186351,0,0,0.07182732,-74.033186,64.180032)"
       cx="74.773003"
       cy="412.49701"
       r="18.343"
       id="circle1823-9-0"
       style="fill:#eb5569;stroke-width:4.78069258"
       inkscape:export-xdpi="11.064002"
       inkscape:export-ydpi="11.064002" />
    <circle
       transform="matrix(0.07186351,0,0,0.07182732,-73.019716,64.964267)"
       cx="216.51401"
       cy="224.60001"
       r="25.188999"
       id="circle1827-6-3"
       style="fill:#eb5569;stroke-width:4.78069258"
       inkscape:export-xdpi="11.064002"
       inkscape:export-ydpi="11.064002" />
    <circle
       transform="matrix(0.07186351,0,0,0.07182732,-74.033186,63.559197)"
       cx="236.73399"
       cy="302.83899"
       r="17.145"
       id="circle1829-3-7"
       style="fill:#eb5569;stroke-width:4.78069258"
       inkscape:export-xdpi="11.064002"
       inkscape:export-ydpi="11.064002" />
    <circle
       transform="matrix(0.07186351,0,0,0.07182732,-74.425497,63.755254)"
       cx="290.57001"
       cy="251.494"
       r="14.397"
       id="circle1831-8-5"
       style="fill:#eb5569;stroke-width:4.78069258"
       inkscape:export-xdpi="11.064002"
       inkscape:export-ydpi="11.064002" />
    <circle
       transform="matrix(0.09030083,0,0,0.09025535,-89.76947,56.948429)"
       cx="411.56299"
       cy="442.629"
       r="27.018"
       id="circle1825-8-2-4"
       style="fill:#eb5569;stroke-width:4.78069258"
       inkscape:export-xdpi="11.064002"
       inkscape:export-ydpi="11.064002" />
  </g>
</svg>
