<?xml version="1.0" encoding="UTF-8" standalone="no"?>
<!-- Created with Inkscape (http://www.inkscape.org/) -->

<svg
   xmlns:dc="http://purl.org/dc/elements/1.1/"
   xmlns:cc="http://creativecommons.org/ns#"
   xmlns:rdf="http://www.w3.org/1999/02/22-rdf-syntax-ns#"
   xmlns:svg="http://www.w3.org/2000/svg"
   xmlns="http://www.w3.org/2000/svg"
   xmlns:sodipodi="http://sodipodi.sourceforge.net/DTD/sodipodi-0.dtd"
   xmlns:inkscape="http://www.inkscape.org/namespaces/inkscape"
   version="1.1"
   id="svg2"
   xml:space="preserve"
   width="150.7196"
   height="150.85725"
   viewBox="0 0 150.7196 150.85725"
   sodipodi:docname="logo_left.svg"
   inkscape:version="0.92.3 (2405546, 2018-03-11)"><metadata
     id="metadata8"><rdf:RDF><cc:Work
         rdf:about=""><dc:format>image/svg+xml</dc:format><dc:type
           rdf:resource="http://purl.org/dc/dcmitype/StillImage" /><dc:title></dc:title></cc:Work></rdf:RDF></metadata><defs
     id="defs6"><clipPath
       clipPathUnits="userSpaceOnUse"
       id="clipPath18"><path
         d="m 48.189,750.189 h 76.982 v 67.606 H 48.189 Z"
         id="path16"
         inkscape:connector-curvature="0" /></clipPath><clipPath
       clipPathUnits="userSpaceOnUse"
       id="clipPath122"><path
         d="m 427.265,750.189 h 119.822 v 67.606 H 427.265 Z"
         id="path120"
         inkscape:connector-curvature="0" /></clipPath><clipPath
       clipPathUnits="userSpaceOnUse"
       id="clipPath634"><path
         d="M 48.189,48.189 H 595.276 V 726.095 H 48.189 Z"
         id="path632"
         inkscape:connector-curvature="0" /></clipPath><clipPath
       clipPathUnits="userSpaceOnUse"
       id="clipPath696"><path
         d="M 0,0 H 595.276 V 841.89 H 0 Z"
         id="path694"
         inkscape:connector-curvature="0" /></clipPath><clipPath
       clipPathUnits="userSpaceOnUse"
       id="clipPath736"><path
         d="M 0,0 H 595.276 V 841.89 H 0 Z"
         id="path734"
         inkscape:connector-curvature="0" /></clipPath><clipPath
       clipPathUnits="userSpaceOnUse"
       id="clipPath748"><path
         d="m 109.842,489.871 c 0,-18.257 10.961,-33.954 26.658,-40.874 v 0 h 35.977 c 4.957,2.186 9.444,5.248 13.261,8.988 v 0 63.772 c -8.053,7.892 -19.084,12.759 -31.249,12.759 v 0 c -24.658,0 -44.647,-19.988 -44.647,-44.645"
         id="path746"
         inkscape:connector-curvature="0" /></clipPath><clipPath
       clipPathUnits="userSpaceOnUse"
       id="clipPath800"><path
         d="M 0,0 H 595.276 V 841.89 H 0 Z"
         id="path798"
         inkscape:connector-curvature="0" /></clipPath><clipPath
       clipPathUnits="userSpaceOnUse"
       id="clipPath816"><path
         d="M 300.343,221.614 C 286.35,214.077 276.84,199.29 276.84,182.282 v 0 c 0,-24.657 19.988,-44.645 44.645,-44.645 v 0 c 24.658,0 44.646,19.988 44.646,44.645 v 0 c 0,17.008 -9.511,31.795 -23.503,39.332 v 0 z"
         id="path814"
         inkscape:connector-curvature="0" /></clipPath><clipPath
       clipPathUnits="userSpaceOnUse"
       id="clipPath856"><path
         d="M 0,0 H 595.276 V 841.89 H 0 Z"
         id="path854"
         inkscape:connector-curvature="0" /></clipPath><clipPath
       clipPathUnits="userSpaceOnUse"
       id="clipPath876"><path
         d="M 0,0 H 595.276 V 841.89 H 0 Z"
         id="path874"
         inkscape:connector-curvature="0" /></clipPath><clipPath
       clipPathUnits="userSpaceOnUse"
       id="clipPath888"><path
         d="m 308.962,381.881 c -18.434,-5.494 -31.875,-22.573 -31.875,-42.792 v 0 c 0,-23.424 18.035,-42.633 40.977,-44.497 v 0 h 7.336 c 22.942,1.864 40.978,21.073 40.978,44.497 v 0 c 0,20.219 -13.441,37.298 -31.876,42.792 v 0 z"
         id="path886"
         inkscape:connector-curvature="0" /></clipPath><clipPath
       clipPathUnits="userSpaceOnUse"
       id="clipPath1004"><path
         d="M 0,0 H 595.276 V 841.89 H 0 Z"
         id="path1002"
         inkscape:connector-curvature="0" /></clipPath><clipPath
       clipPathUnits="userSpaceOnUse"
       id="clipPath1028"><path
         d="M 0,0 H 595.276 V 841.89 H 0 Z"
         id="path1026"
         inkscape:connector-curvature="0" /></clipPath><clipPath
       clipPathUnits="userSpaceOnUse"
       id="clipPath1040"><path
         d="M 466.655,377.751 C 453.319,370.029 444.35,355.607 444.35,339.089 v 0 c 0,-13.022 5.573,-24.739 14.465,-32.9 v 0 h 60.361 c 8.893,8.161 14.465,19.878 14.465,32.9 v 0 c 0,16.518 -8.969,30.94 -22.304,38.662 v 0 z"
         id="path1038"
         inkscape:connector-curvature="0" /></clipPath><clipPath
       clipPathUnits="userSpaceOnUse"
       id="clipPath1060"><path
         d="M 0,0 H 595.276 V 841.89 H 0 Z"
         id="path1058"
         inkscape:connector-curvature="0" /></clipPath><clipPath
       clipPathUnits="userSpaceOnUse"
       id="clipPath1080"><path
         d="M 0,0 H 595.276 V 841.89 H 0 Z"
         id="path1078"
         inkscape:connector-curvature="0" /></clipPath><clipPath
       clipPathUnits="userSpaceOnUse"
       id="clipPath1092"><path
         d="M 278.429,500.782 V 478.96 c 3.851,-15.331 15.63,-27.515 30.725,-31.938 v 0 h 25.156 c 10.452,3.063 19.314,9.846 25.055,18.818 v 0 48.062 c -7.932,12.396 -21.824,20.614 -37.633,20.614 v 0 c -20.893,0 -38.435,-14.351 -43.303,-33.734"
         id="path1090"
         inkscape:connector-curvature="0" /></clipPath><clipPath
       clipPathUnits="userSpaceOnUse"
       id="clipPath1172"><path
         d="M 0,0 H 595.276 V 841.89 H 0 Z"
         id="path1170"
         inkscape:connector-curvature="0" /></clipPath><clipPath
       clipPathUnits="userSpaceOnUse"
       id="clipPath1192"><path
         d="M 0,0 H 595.276 V 841.89 H 0 Z"
         id="path1190"
         inkscape:connector-curvature="0" /></clipPath><clipPath
       clipPathUnits="userSpaceOnUse"
       id="clipPath1204"><path
         d="m 466.476,528.78 c -2.941,-1.712 -5.669,-3.748 -8.136,-6.061 v 0 -65.382 c 8.013,-7.513 18.787,-12.112 30.636,-12.112 v 0 c 24.744,0 44.803,20.059 44.803,44.803 v 0 c 0,16.543 -8.965,30.992 -22.304,38.752 v 0 z"
         id="path1202"
         inkscape:connector-curvature="0" /></clipPath><clipPath
       clipPathUnits="userSpaceOnUse"
       id="clipPath1266"><path
         d="M 0,0 H 595.276 V 841.89 H 0 Z"
         id="path1264"
         inkscape:connector-curvature="0" /></clipPath><clipPath
       clipPathUnits="userSpaceOnUse"
       id="clipPath1286"><path
         d="M 0,0 H 595.276 V 841.89 H 0 Z"
         id="path1284"
         inkscape:connector-curvature="0" /></clipPath><clipPath
       clipPathUnits="userSpaceOnUse"
       id="clipPath1298"><path
         d="m 131.093,377.121 c -5.244,-3.233 -9.769,-7.521 -13.28,-12.567 v 0 -50.931 c 8.065,-11.591 21.485,-19.18 36.676,-19.18 v 0 c 24.656,0 44.645,19.988 44.645,44.646 v 0 c 0,16.079 -8.5,30.171 -21.251,38.032 v 0 z"
         id="path1296"
         inkscape:connector-curvature="0" /></clipPath><clipPath
       clipPathUnits="userSpaceOnUse"
       id="clipPath1422"><path
         d="M 0,0 H 595.276 V 841.89 H 0 Z"
         id="path1420"
         inkscape:connector-curvature="0" /></clipPath></defs><sodipodi:namedview
     pagecolor="#ffffff"
     bordercolor="#666666"
     borderopacity="1"
     objecttolerance="10"
     gridtolerance="10"
     guidetolerance="10"
     inkscape:pageopacity="0"
     inkscape:pageshadow="2"
     inkscape:window-width="1920"
     inkscape:window-height="1021"
     id="namedview4"
     showgrid="false"
     inkscape:zoom="0.594652"
     inkscape:cx="-46.541253"
     inkscape:cy="-220.23638"
     inkscape:window-x="0"
     inkscape:window-y="0"
     inkscape:window-maximized="1"
     inkscape:current-layer="g10"
     fit-margin-top="0"
     fit-margin-left="0"
     fit-margin-right="0"
     fit-margin-bottom="0" /><g
     id="g10"
     inkscape:groupmode="layer"
     inkscape:label="affiche_-_gestes_barrieres"
     transform="matrix(1.3333333,0,0,-1.3333333,-354.60928,870.09808)">






































<g
   id="g1812"
   transform="translate(583.955,99.63811)"><path
     inkscape:export-ydpi="127.38887"
     inkscape:export-xdpi="127.38887"
     inkscape:export-filename="/home/mverot/www/cartes/images/icon_left.png"
     transform="matrix(0.43960887,0,0,0.43960887,-227.34277,521.74258)"
     d="m 0,0 c 4.156,1.893 8.662,3.212 11.603,6.944 -0.394,1.33 -0.748,2.526 -1.203,4.062 1.624,0.902 3.084,1.713 4.379,2.433 5.443,-0.608 7.631,-4.51 9.285,-8.574 1.072,-2.631 3.245,-5.677 -0.306,-8.58 -4.871,-1.679 -10.907,1.741 -15.466,-2.628 3.737,-8.411 7.451,-16.769 11.309,-25.452 3.113,1.315 6.464,2.731 9.608,4.059 0.903,4.504 -0.858,8.981 2.352,12.833 0.646,0.093 1.534,0.109 2.352,0.356 5.956,1.794 11.095,-0.533 13.025,-6.209 1.399,-4.114 3.352,-8.14 2.862,-12.718 -0.044,-0.413 0.727,-0.912 1.119,-1.372 v -8.035 c -2.006,-1.867 -4.013,-3.733 -6.063,-5.641 -1.22,0.567 -1.975,0.99 -2.78,1.272 -0.821,0.289 -1.69,0.439 -2.44,0.625 -1.561,2.22 -3.052,4.341 -4.622,6.575 -4.154,-1.762 -8.104,-3.437 -12.067,-5.118 4.452,-23.456 -1.146,-44.84 -14.368,-64.859 3.259,-1.611 5.756,-2.846 8.642,-4.273 3.17,2.947 6.211,5.774 9.716,9.033 2.653,-1.484 5.253,-2.938 7.677,-4.294 1.388,-8.971 -3.467,-15.879 -5.377,-23.409 -0.808,-3.188 -2.256,-6.822 -6.169,-8.898 h -8.471 c -4.007,1.065 -3.599,5.318 -5.244,7.933 0.573,2.461 1.066,4.574 1.611,6.913 -3.597,2.134 -6.95,4.124 -10.01,5.939 -8.728,-9.982 -17.496,-19.556 -30.432,-24.523 1.483,-3.63 2.961,-7.25 4.5,-11.017 h 6.749 c 1.304,-1.247 2.422,-2.314 3.585,-3.425 -0.221,-0.728 -0.221,-1.523 -0.619,-1.917 -4.28,-4.243 -9.615,-6.757 -15.378,-9.279 -1.018,1.739 -1.997,3.411 -2.998,5.12 0.518,1.588 0.987,3.027 1.031,3.16 -3.655,3.86 -6.819,7.202 -10.596,11.192 -10.765,-5.047 -23.468,-3.386 -36.264,-3.747 -2.25,-4.353 -5.136,-8.525 -4.719,-14.21 2.062,-1.208 4.129,-2.419 6.414,-3.759 3.728,-5.616 3.913,-7.513 0.95,-12.398 -10.078,-1.159 -20.061,-0.487 -29.897,2.716 -5.008,1.631 -8.579,4.296 -9.3,10.087 2.262,5.389 7.305,4.559 12.487,4.837 0.737,0.696 1.855,1.751 2.803,2.645 0.224,4.258 0.432,8.202 0.653,12.398 -12.886,5.277 -25.423,12.389 -36.905,21.235 -2.726,-2.849 -5.573,-5.824 -9.03,-9.437 -0.343,-3.006 5.918,-6.607 1.117,-10.955 -8.891,-0.671 -13.02,2.273 -18.317,12.964 0.541,1.643 1.084,3.285 1.853,5.609 2.596,-0.349 5.307,-0.712 8.405,-1.127 2.134,3.164 4.459,6.612 6.795,10.075 -9.593,10.443 -17.334,21.902 -20.489,35.86 -7.58,-0.886 -15.147,-1.771 -22.769,-2.663 -0.71,-2.741 -1.463,-5.644 -2.248,-8.672 h -6.007 c -3.483,3.893 -7.234,7.899 -7.557,13.88 -0.014,0.249 -0.646,0.465 -0.989,0.697 v 10.714 c 1.685,1.91 3.371,3.82 4.941,5.599 5.979,-0.883 6.609,-6.835 10.245,-9.159 4.282,-1.664 7.384,1.166 10.841,2.309 3.273,1.082 6.477,2.374 10.409,3.833 -0.463,3.556 -1.428,7.449 -1.344,11.319 0.083,3.825 1.227,7.627 1.888,11.335 -2.681,2.519 -5.765,0.99 -8.832,1.721 -1.104,-0.844 -2.31,-1.766 -3.69,-2.822 h -6.256 c -1.001,0.947 -2.268,2.147 -3.392,3.212 -0.109,8.54 2.145,11.323 9.438,12.688 4.437,-1.537 8.282,-2.87 11.857,-4.109 2.362,6.652 4.535,12.771 6.755,19.024 -4.337,6.378 -10.199,11.242 -16.658,15.938 -1.835,-1.748 -3.563,-3.395 -5.429,-5.173 h -6.522 c -4.187,3.211 -4.533,7.887 -3.321,12.085 1.68,5.812 4.114,11.537 7.13,16.778 1.501,2.608 5.019,4.054 7.401,5.857 5.858,-3.114 9.108,-8.976 9.673,-17.02 4.632,-5.276 11.467,-7.457 17.791,-10.801 4.522,5.568 9.076,11.173 13.931,17.15 -1.486,2.83 -4.079,4.895 -7.087,6.897 -2.959,1.969 -7.213,3.126 -7.04,8.918 2.343,5.671 7.058,9.181 14.972,8.182 0.959,-1.014 2.159,-2.282 3.384,-3.577 -0.564,-2.501 -1.088,-4.827 -1.743,-7.73 2.503,-1.766 4.938,-3.483 7.3,-5.15 7.831,3.561 15.158,6.892 22.046,10.024 1.235,6.057 -1.392,10.588 -2.929,15.743 -4.078,-0.036 -8.346,-0.131 -11.429,3.483 -2.301,2.698 -2.813,4.618 -2.388,11.272 3.051,1.302 6.402,2.774 9.786,4.165 3.334,1.372 6.702,2.662 10.055,3.988 h 9.375 c 0.88,-1.248 1.76,-2.495 2.585,-3.665 0.927,-5.39 -0.831,-9.689 -4.997,-12.647 -1.107,-7.478 3.036,-13.028 5.406,-19.484 9.409,3.04 19.015,2.153 29.184,0.932 1.369,4.331 2.663,8.429 3.965,12.55 -1.795,1.903 -3.472,3.681 -5.158,5.468 -0.205,2.691 -1.046,5.419 2.161,7.56 2.596,-2.587 5.567,0.717 8.373,-0.22 2.675,-0.894 5.118,-2.487 7.85,-3.867 v -7.338 c -1.599,-0.689 -3.154,-1.359 -4.845,-2.088 V 33.708 c 2.326,-0.108 4.502,-0.208 6.586,-0.304 4.447,-2.056 8.802,-4.069 13.524,-6.252 2.747,4.906 9.196,7.557 10.555,14.499 -3.423,4.019 -8.537,7.461 -6.519,14.4 3.451,3.121 8.116,2.154 11.804,1.2 C -9.14,55.842 -3.925,53.102 1.004,50.262 5.891,47.447 7.602,40.167 4.9,34.713 H -1.314 -7.072 C -10.548,28.946 -13.839,23.488 -17.152,17.992 -10.669,15.021 -6.319,9.58 -1.363,4.852 -1.363,4.852 0.529,1.825 0,0"
     style="fill:#eb5569;fill-opacity:1;fill-rule:nonzero;stroke:none;stroke-width:2.27474952"
     id="path638"
     inkscape:connector-curvature="0" /><path
     inkscape:export-ydpi="127.38887"
     inkscape:export-xdpi="127.38887"
     inkscape:export-filename="/home/mverot/www/cartes/images/icon_left.png"
     transform="translate(-259.01148,451.76559)"
     d="M 0,0 C 23.928,0 43.396,19.467 43.396,43.396 43.396,67.324 23.928,86.791 0,86.791 -23.928,86.791 -43.396,67.324 -43.396,43.396 -43.396,19.467 -23.928,0 0,0 Z"
     style="fill:#f58a97;fill-opacity:1;stroke:#eb5569;stroke-width:2.5;stroke-linecap:butt;stroke-linejoin:miter;stroke-miterlimit:4;stroke-dasharray:none;stroke-opacity:1"
     id="path804"
     inkscape:connector-curvature="0" /><path
     inkscape:export-ydpi="127.38887"
     inkscape:export-xdpi="127.38887"
     inkscape:export-filename="/home/mverot/www/cartes/images/icon_left.png"
     transform="rotate(46.366752,-716.40021,-67.009589)"
     d="M 0,0 -0.336,-0.891"
     style="fill:none;stroke:#3f5fb5;stroke-width:0.86299998;stroke-linecap:butt;stroke-linejoin:miter;stroke-miterlimit:10;stroke-dasharray:none;stroke-opacity:1"
     id="path752"
     inkscape:connector-curvature="0" /><g
     inkscape:export-ydpi="127.38887"
     inkscape:export-xdpi="127.38887"
     inkscape:export-filename="/home/mverot/www/cartes/images/icon_left.png"
     transform="matrix(1.170434,0,0,1.170434,40.952282,-77.709771)"
     style="opacity:1"
     id="g2539"><path
       inkscape:connector-curvature="0"
       id="path764"
       style="fill:#3f5fb5;fill-opacity:1;fill-rule:nonzero;stroke:none"
       d="m 0,0 c 0,0 2.446,6.532 5.579,6.308 3.106,-0.222 3.17,-3.614 3.17,-3.614 0,0 0.253,1.348 2.155,2.06 1.775,0.666 3.234,0.223 3.234,0.223 0,0 -0.446,2.82 2.135,3.537 2.003,0.557 3.315,-0.198 3.315,-0.198 0,0 1.397,3.428 4.08,1.756 2.682,-1.673 1.668,-4.123 1.668,-4.123 0,0 3.888,0.338 4.903,-0.761 1.015,-1.099 1.775,-5.325 1.775,-5.325 l 3.529,-6.033 c 0,0 2.429,-0.967 2.07,-3.342 -0.359,-2.374 -2.105,-2.647 -2.105,-2.647 0,0 2.106,-2.155 1.218,-4.45 -0.888,-2.296 -3.36,-2.293 -3.36,-2.293 0,0 1.881,-2.44 0.444,-4.554 -1.351,-1.985 -3.909,-1.447 -3.909,-1.447 0,0 0.063,-1.638 -1.289,-2.399 -1.353,-0.76 -2.769,0.032 -2.769,0.032 0,0 -1.31,-1.574 -2.767,-2.018 -3.023,-0.919 -5.431,1.765 -5.431,1.765 l -21.385,12.34 z"
       transform="rotate(46.366752,-702.50749,-79.391684)" /><path
       inkscape:connector-curvature="0"
       id="path768"
       style="fill:none;stroke:#283a7f;stroke-width:0.86299998;stroke-linecap:butt;stroke-linejoin:round;stroke-miterlimit:10;stroke-dasharray:none;stroke-opacity:1"
       d="m 0,0 c 0,0 2.446,6.532 5.579,6.308 3.106,-0.222 3.17,-3.614 3.17,-3.614 0,0 0.253,1.348 2.155,2.06 1.775,0.666 3.234,0.223 3.234,0.223 0,0 -0.446,2.82 2.135,3.537 2.003,0.557 3.315,-0.198 3.315,-0.198 0,0 1.397,3.428 4.08,1.756 2.682,-1.673 1.668,-4.123 1.668,-4.123 0,0 3.888,0.338 4.903,-0.761 1.015,-1.099 1.775,-5.325 1.775,-5.325 l 3.529,-6.033 c 0,0 2.429,-0.967 2.07,-3.342 -0.359,-2.374 -2.105,-2.647 -2.105,-2.647 0,0 2.106,-2.155 1.218,-4.45 -0.888,-2.296 -3.36,-2.293 -3.36,-2.293 0,0 1.881,-2.44 0.444,-4.554 -1.351,-1.985 -3.909,-1.447 -3.909,-1.447 0,0 0.063,-1.638 -1.289,-2.399 -1.353,-0.76 -2.769,0.032 -2.769,0.032 0,0 -1.31,-1.574 -2.767,-2.018 -3.023,-0.919 -5.431,1.765 -5.431,1.765 l -21.385,12.34 z"
       transform="rotate(46.366752,-702.50749,-79.391684)" /></g><g
     inkscape:export-ydpi="127.38887"
     inkscape:export-xdpi="127.38887"
     inkscape:export-filename="/home/mverot/www/cartes/images/icon_left.png"
     transform="matrix(1.1672552,-0.08620294,0.08620294,1.1672552,-1.7393018,-98.784722)"
     id="g2535"><path
       inkscape:connector-curvature="0"
       id="path772"
       style="fill:#ffffff;fill-opacity:1;fill-rule:nonzero;stroke:none"
       d="m 1.0981616,0.84958592 c 0,0 5.9748384,5.93441408 5.4808384,8.05741408 -0.493,2.124 -2.607,4.851 0.394,11.802 3.212,7.437 8.014,25.312 9.974,25.357 3.719,0.085 4.057,-8.537 2.874,-10.904 -1.184,-2.367 -2.767,-5.839 -1.583,-6.858 1.752,-1.51 10.627,6.266 11.557,7.28 0.93,1.015 12.628,11.14 14.707,9.806 1.141,-0.732 1.606,-2.789 1.606,-2.789 0,0 3.043,2.366 4.396,1.098 1.352,-1.268 0.866,-2.855 0.866,-2.855 0,0 1.923,-0.357 2.43,-1.709 0.507,-1.353 -3.546,-6.272 -3.546,-6.272 0,0 2.066,-0.445 2.278,-1.251 C 52.955,30.007 46.97,18.489 42.651,12.795 38.332,7.1 34.378,1.464 28.451,-1.297 22.526,-4.057 18.385,-8.5369995 16.524,-11.664 8.8778765,-9.0233282 4.6913777,-4.2681748 1.0981616,0.84958592 Z"
       transform="rotate(46.366752,-658.42188,-80.48154)"
       sodipodi:nodetypes="cccccccccccccccccc" /><path
       sodipodi:nodetypes="ccccccccccccccccccccccc"
       inkscape:connector-curvature="0"
       id="path776"
       style="fill:none;stroke:#000000;stroke-width:0.86299998;stroke-linecap:round;stroke-linejoin:round;stroke-miterlimit:10;stroke-dasharray:none;stroke-opacity:1"
       d="m 1.0981616,0.84958592 c 0,0 5.9748384,5.93441408 5.4808384,8.05741408 -0.493,2.124 -2.607,4.851 0.394,11.802 3.212,7.437 8.014,25.312 9.974,25.357 3.719,0.085 4.057,-8.537 2.874,-10.904 -1.184,-2.367 -2.767,-5.839 -1.583,-6.858 1.752,-1.51 10.627,6.266 11.557,7.28 0.93,1.015 12.628,11.14 14.707,9.806 1.141,-0.732 1.606,-2.789 1.606,-2.789 0,0 3.043,2.366 4.396,1.098 1.352,-1.268 0.866,-2.855 0.866,-2.855 0,0 1.923,-0.357 2.43,-1.709 0.507,-1.353 -3.546,-6.272 -3.546,-6.272 0,0 2.066,-0.445 2.278,-1.251 C 52.955,30.007 46.97,18.489 42.651,12.795 38.332,7.1 34.378,1.464 28.451,-1.297 22.526,-4.057 18.385,-8.537 16.524,-11.664 m 24.01,30.824 9.72,13.703 M 36.585,23.412 51.37,40.844 M 31.154,28.591 46.108,42.601"
       transform="rotate(46.366752,-658.42188,-80.48154)" /></g><path
     inkscape:export-ydpi="127.38887"
     inkscape:export-xdpi="127.38887"
     inkscape:export-filename="/home/mverot/www/cartes/images/icon_left.png"
     transform="translate(-259.01148,451.76559)"
     d="M 0,0 C 23.928,0 43.396,19.467 43.396,43.396 43.396,67.324 23.928,86.791 0,86.791 -23.928,86.791 -43.396,67.324 -43.396,43.396 -43.396,19.467 -23.928,0 0,0 Z"
     style="fill:none;fill-opacity:1;stroke:#eb5569;stroke-width:2.5;stroke-linecap:butt;stroke-linejoin:miter;stroke-miterlimit:4;stroke-dasharray:none;stroke-opacity:1"
     id="path804-6"
     inkscape:connector-curvature="0" /></g>

</g></svg>